<?xml version="1.0" standalone="no"?>
<!DOCTYPE svg PUBLIC "-//W3C//DTD SVG 20010904//EN"
 "http://www.w3.org/TR/2001/REC-SVG-20010904/DTD/svg10.dtd">
<svg version="1.0" xmlns="http://www.w3.org/2000/svg"
 width="128.000000pt" height="128.000000pt" viewBox="0 0 128.000000 128.000000"
 preserveAspectRatio="xMidYMid meet">
<metadata>
Created by potrace 1.11, written by Peter Selinger 2001-2013
</metadata>
<g transform="translate(0.000000,128.000000) scale(0.100000,-0.100000)"
fill="#000000" stroke="none">
<path d="M870 1248 c-29 -47 -50 -127 -53 -197 -1 -34 -5 -61 -8 -61 -4 0 -26
7 -50 16 -59 21 -172 22 -235 0 -114 -37 -202 -122 -244 -233 -29 -76 -30
-188 -3 -258 l19 -51 -45 1 c-90 0 -225 -41 -246 -75 -12 -19 5 -46 49 -77 25
-17 60 -55 79 -83 19 -28 62 -71 96 -96 33 -24 72 -62 86 -83 26 -43 58 -59
79 -42 36 30 71 151 69 242 l0 47 36 -15 c51 -21 77 -26 151 -25 158 2 299
106 356 262 23 64 21 183 -3 246 l-20 51 64 1 c71 1 152 22 201 52 45 27 39
55 -18 95 -25 17 -62 55 -82 84 -21 30 -64 73 -97 97 -33 24 -73 64 -91 89
-37 54 -62 58 -90 13z"/>
</g>
</svg>
