<?xml version="1.0" standalone="no"?>
<!DOCTYPE svg PUBLIC "-//W3C//DTD SVG 20010904//EN"
 "http://www.w3.org/TR/2001/REC-SVG-20010904/DTD/svg10.dtd">
<svg version="1.0" xmlns="http://www.w3.org/2000/svg"
 width="1280.000000pt" height="1280.000000pt" viewBox="0 0 1280.000000 1280.000000"
 preserveAspectRatio="xMidYMid meet">
<metadata>
Created by potrace 1.11, written by Peter Selinger 2001-2013
</metadata>
<g transform="translate(0.000000,1280.000000) scale(0.100000,-0.100000)"
fill="#000000" stroke="none">
<path d="M5355 11362 c-22 -10 -54 -32 -72 -49 l-32 -30 0 -284 c-1 -163 6
-382 15 -514 9 -126 16 -246 16 -265 0 -19 -1 -57 -1 -85 0 -27 -7 -131 -15
-230 -9 -99 -14 -229 -13 -290 2 -97 -1 -121 -27 -201 -37 -119 -59 -144 -129
-144 -40 0 -59 6 -82 24 -27 22 -29 29 -32 97 -7 162 -25 396 -33 429 -5 19
-11 103 -14 185 -3 83 -7 161 -10 175 -11 71 -89 311 -110 341 -9 13 -16 29
-16 36 0 28 -53 125 -85 157 -45 46 -113 85 -175 101 -63 17 -244 9 -261 -11
-6 -8 -20 -14 -30 -14 -39 0 -138 -88 -124 -110 3 -5 -10 -25 -30 -45 -19 -20
-38 -49 -41 -63 -4 -15 -15 -41 -26 -59 -10 -18 -23 -66 -28 -110 -5 -43 -14
-94 -20 -113 -6 -19 -10 -66 -9 -105 2 -81 -11 -356 -17 -366 -13 -21 -21
-209 -13 -302 3 -32 2 -60 -3 -63 -5 -3 -6 -40 -3 -82 2 -42 4 -86 4 -97 -8
-113 28 -734 50 -872 9 -62 -3 -153 -27 -202 -10 -21 -34 -44 -61 -59 -38 -21
-51 -23 -105 -17 -57 7 -64 11 -113 60 -32 33 -56 68 -62 92 -17 62 -49 331
-66 568 -10 121 -18 223 -20 226 -17 26 -38 186 -45 339 -9 208 -19 256 -67
352 -38 75 -126 178 -152 178 -9 0 -26 7 -38 15 -19 13 -33 14 -89 5 -86 -14
-125 -31 -164 -71 -44 -46 -69 -106 -80 -192 -13 -100 -12 -350 1 -384 11 -28
29 -269 33 -443 1 -52 7 -135 13 -185 7 -49 17 -142 24 -205 6 -63 16 -133 22
-155 6 -22 12 -51 13 -65 1 -26 35 -154 59 -227 9 -25 12 -61 9 -85 -4 -38 -1
-47 27 -78 17 -19 47 -58 66 -87 18 -29 43 -58 56 -64 12 -6 33 -22 47 -34 27
-24 128 -64 225 -90 41 -10 133 -17 292 -22 l232 -6 -1 -116 c0 -64 0 -124 1
-133 1 -10 1 -40 0 -68 l-1 -50 -499 0 c-545 0 -529 2 -599 -59 l-35 -30 3
-303 c2 -167 7 -307 11 -311 4 -4 55 -9 112 -11 57 -2 107 -4 110 -5 9 -1 16
-32 29 -117 17 -105 38 -240 54 -334 8 -47 22 -126 30 -177 8 -51 19 -116 24
-145 6 -29 16 -89 22 -133 6 -44 16 -102 21 -130 5 -27 11 -63 13 -80 12 -79
47 -293 51 -315 3 -14 12 -65 20 -115 40 -254 76 -467 90 -530 18 -85 50 -285
65 -415 6 -52 13 -110 16 -127 l6 -33 -1073 -2 -1074 -3 0 -30 0 -30 110 -3
110 -3 -40 -22 c-52 -29 -101 -102 -116 -175 -15 -74 -2 -148 43 -238 32 -64
59 -96 200 -230 29 -27 73 -73 97 -101 97 -113 329 -239 539 -294 171 -44 434
-59 722 -40 58 4 106 6 108 6 10 -6 -222 -634 -313 -845 -43 -99 -44 -101 -43
-62 1 32 -24 80 -45 87 -7 2 -25 6 -40 10 l-29 6 8 132 c10 186 9 232 -10 319
-9 42 -16 80 -16 83 0 3 -11 5 -23 5 -20 0 -33 -17 -75 -92 -63 -114 -77 -154
-97 -271 -9 -50 -18 -94 -21 -99 -10 -15 -34 5 -65 55 -75 120 -93 144 -191
257 -101 117 -141 147 -159 119 -9 -15 -9 -16 22 -149 28 -125 63 -247 96
-341 l27 -76 -22 -28 c-12 -15 -22 -38 -22 -50 0 -12 -3 -36 -6 -53 -6 -28
-11 -32 -63 -43 -123 -25 -379 -128 -498 -201 -44 -27 -53 -37 -51 -58 3 -21
13 -28 73 -48 40 -13 110 -25 163 -29 l94 -6 -8 -31 c-5 -17 -9 -69 -9 -116 0
-69 4 -94 23 -132 54 -109 155 -171 292 -176 149 -6 267 38 400 150 l70 58 63
-48 c114 -88 215 -150 279 -171 202 -67 378 -17 553 159 49 49 87 92 84 94 -3
3 -40 -12 -83 -34 -161 -80 -272 -62 -521 88 -49 30 -112 72 -140 94 l-51 40
63 96 c163 248 380 733 524 1172 28 88 57 160 63 160 49 1 459 70 557 94 161
39 290 66 317 66 15 0 84 -11 153 -24 159 -31 297 -52 484 -72 82 -8 151 -16
151 -17 1 -1 -24 -56 -57 -122 -88 -181 -151 -395 -201 -685 -18 -110 -16
-387 5 -480 49 -224 110 -346 223 -450 98 -88 198 -125 323 -118 172 11 339
119 472 304 72 100 179 307 179 345 0 5 -28 9 -62 9 -49 0 -77 -7 -123 -29
l-60 -28 -63 -127 c-104 -206 -225 -310 -362 -310 -42 0 -77 6 -98 18 -212
111 -276 438 -169 861 75 295 227 625 359 777 l23 27 235 3 235 3 3 -70 c8
-196 -112 -435 -257 -510 -39 -20 -43 -24 -27 -31 47 -18 171 39 244 113 l43
44 -21 -40 c-51 -102 -234 -230 -253 -178 -2 6 -8 9 -12 5 -4 -4 -2 -15 6 -24
11 -13 26 -15 79 -11 77 6 137 30 203 81 l48 36 -17 -32 c-9 -18 -32 -50 -52
-70 l-36 -38 28 0 c38 0 86 31 137 88 l42 47 -29 -55 c-34 -65 -102 -137 -138
-146 -36 -9 -33 -24 4 -24 42 0 89 21 135 61 39 34 40 34 17 4 -27 -34 -89
-75 -114 -75 -10 0 -18 -4 -18 -10 0 -5 16 -10 35 -10 56 0 117 64 155 166 7
17 7 23 -1 19 -6 -4 -1 11 10 32 28 56 77 204 97 293 11 49 17 123 17 213 l0
137 31 0 c34 0 161 -19 326 -49 518 -93 810 -136 982 -143 38 -2 68 -7 68 -11
0 -4 12 -19 28 -32 22 -20 24 -24 9 -25 -10 0 -16 -4 -13 -9 7 -10 100 -27
209 -37 57 -5 68 -9 64 -23 -3 -9 -17 -54 -30 -101 -14 -47 -51 -173 -82 -280
-32 -107 -61 -212 -66 -233 -26 -109 -200 -358 -317 -453 -109 -89 -170 -105
-236 -64 -51 31 -75 86 -76 171 0 208 163 512 298 553 21 7 22 4 22 -38 0 -50
-35 -140 -76 -193 -14 -18 -21 -33 -15 -33 5 0 13 4 16 10 3 5 16 15 28 21 22
12 22 12 3 -10 -25 -28 -15 -36 44 -35 64 1 123 21 139 47 43 68 64 116 81
184 24 91 25 143 5 209 -25 85 -74 116 -182 116 -63 0 -84 -5 -139 -32 -131
-64 -250 -210 -326 -398 -21 -52 -38 -100 -38 -107 0 -21 -128 -263 -181 -341
-48 -72 -131 -154 -155 -154 -8 0 -20 10 -29 23 -18 28 -11 79 28 197 39 119
78 205 220 494 60 123 105 226 102 235 -10 31 -63 53 -145 58 -77 6 -79 5 -91
-19 l-11 -25 -47 26 c-38 22 -58 26 -121 26 -98 0 -174 -33 -220 -97 -71 -97
-163 -333 -222 -568 -26 -106 -31 -145 -32 -255 -1 -116 1 -134 21 -171 23
-43 71 -74 115 -74 18 0 20 -2 8 -10 -12 -8 -11 -10 6 -10 47 0 123 32 168 71
26 23 46 35 47 27 0 -7 5 -2 10 11 5 14 7 39 4 55 -5 23 -4 27 4 16 6 -8 11
-22 11 -30 0 -51 87 -130 142 -130 70 0 174 92 271 238 61 91 62 93 65 60 8
-88 56 -185 117 -235 39 -32 119 -63 164 -63 34 0 114 27 161 54 80 45 219
174 258 239 9 15 19 27 22 27 3 0 5 -44 6 -98 0 -80 4 -104 22 -140 40 -75
107 -100 180 -65 51 24 162 132 197 192 17 28 32 51 36 51 3 0 5 -24 6 -52 2
-117 44 -190 117 -204 27 -4 34 -9 24 -15 -9 -6 -5 -9 14 -9 41 0 135 38 171
70 18 15 37 25 43 23 16 -5 24 34 14 63 -5 13 -5 26 -1 29 5 2 14 -16 20 -42
15 -58 66 -109 118 -119 30 -6 48 -1 90 21 133 69 269 282 438 685 27 63 52
119 57 125 21 24 -104 -279 -173 -418 -22 -44 -37 -82 -35 -84 17 -17 164 272
211 413 l27 81 47 -20 48 -19 -29 -95 c-72 -244 -90 -473 -45 -583 22 -55 64
-94 115 -107 64 -16 166 56 259 183 25 35 48 62 50 60 2 -2 8 -29 13 -61 13
-80 52 -142 103 -166 114 -51 220 3 349 179 l45 60 7 -71 c11 -121 60 -187
138 -187 18 0 20 -2 8 -10 -12 -8 -9 -10 12 -10 44 0 134 39 170 73 18 17 39
30 46 28 10 -1 13 9 12 36 -3 61 2 71 11 24 19 -97 98 -156 178 -133 118 36
272 244 405 549 54 122 65 173 42 195 -33 34 -53 11 -135 -157 -99 -201 -160
-302 -229 -376 -58 -63 -85 -77 -107 -59 -55 46 40 315 262 749 46 90 83 173
81 185 -5 34 -62 59 -149 64 -78 4 -79 4 -89 -22 l-10 -27 -28 19 c-61 41
-144 52 -226 27 -66 -20 -109 -48 -139 -92 -37 -54 -109 -212 -146 -323 -18
-52 -64 -156 -103 -230 -124 -239 -200 -334 -263 -328 l-30 3 1 75 c0 81 18
146 86 310 101 244 266 500 303 470 10 -8 15 -6 19 8 10 31 -3 50 -49 72 -85
41 -241 35 -265 -11 -6 -11 -15 -17 -19 -15 -16 10 -184 -333 -221 -449 -13
-42 -120 -251 -152 -297 -10 -14 -18 -29 -18 -33 0 -14 -80 -107 -116 -136
-44 -35 -63 -34 -83 2 -13 23 -13 36 3 115 25 131 119 404 153 445 7 9 31 21
52 28 49 14 136 91 163 144 16 32 20 61 22 146 1 116 -8 144 -60 177 -30 20
-101 21 -138 2 -56 -29 -126 -110 -164 -189 -20 -44 -40 -79 -45 -79 -5 0 -33
17 -62 37 l-53 37 1 77 c0 78 -8 102 -48 143 -38 38 -113 6 -147 -62 -40 -85
-23 -213 38 -283 12 -13 9 -26 -16 -92 -43 -112 -158 -347 -223 -455 -98 -164
-172 -236 -217 -212 -58 31 13 245 221 668 69 139 119 252 117 265 -4 29 -54
55 -124 65 -79 10 -99 6 -113 -24 -11 -25 -11 -25 -36 -6 -66 52 -177 53 -279
3 -55 -27 -69 -39 -98 -89 -45 -77 -99 -197 -138 -312 -45 -133 -162 -362
-239 -470 -34 -48 -100 -110 -116 -110 -37 0 -45 12 -45 69 0 120 82 375 321
1000 15 40 29 75 31 76 4 4 202 -13 238 -20 33 -7 66 27 109 112 38 73 20 67
286 84 629 38 1022 118 1375 279 69 32 159 65 200 75 136 32 452 134 545 175
11 5 55 23 98 40 43 16 124 52 181 79 110 53 144 85 171 162 21 59 19 174 -4
225 -21 47 -80 110 -119 127 -22 10 8 13 178 17 l205 5 0 30 0 30 -1210 5
-1210 5 3 30 c5 49 51 413 67 520 8 55 22 156 31 225 9 69 20 130 24 135 4 6
13 55 19 110 7 55 21 161 31 235 11 74 26 191 35 260 14 107 34 226 60 345 4
17 22 109 42 205 19 96 46 229 60 295 39 184 39 181 8 201 -35 23 -33 75 5 85
14 4 52 15 85 24 33 10 65 19 72 21 16 4 13 621 -3 632 -6 4 -14 19 -18 34 -4
17 -15 30 -29 33 -12 3 -158 4 -325 3 -229 -2 -302 0 -302 9 0 6 -9 18 -21 26
-21 15 -21 15 7 29 22 10 30 22 36 58 22 126 29 149 49 155 21 7 24 23 8 57
-7 16 -7 41 -1 78 71 405 80 474 71 491 -5 11 -14 19 -19 19 -6 0 -10 5 -10
10 0 6 7 10 15 10 21 0 35 32 44 103 5 34 24 172 42 307 29 208 34 274 34 438
0 115 4 192 10 192 5 0 23 14 41 31 l32 31 38 -57 c133 -195 256 -317 412
-406 55 -32 103 -33 120 -3 8 14 -15 168 -37 254 -41 155 -119 362 -193 509
l-58 115 34 28 c45 37 76 88 76 125 0 36 9 44 75 67 28 10 98 40 157 67 59 27
112 49 119 49 6 0 39 17 73 38 34 22 81 49 106 61 91 43 173 98 186 124 13 25
13 27 -13 44 -24 16 -52 18 -258 17 -161 -1 -263 -7 -340 -19 -161 -25 -202
-28 -208 -18 -5 7 47 79 122 168 48 58 131 207 131 236 0 6 6 25 14 42 19 42
46 140 46 166 0 11 -11 28 -24 37 -24 15 -28 14 -96 -28 -39 -24 -87 -52 -107
-64 -81 -47 -177 -134 -302 -272 -40 -45 -78 -82 -83 -82 -6 0 -26 14 -45 30
-23 21 -44 30 -68 30 -39 0 -114 -30 -134 -54 -17 -20 -60 -143 -61 -172 0
-33 -175 142 -175 176 0 22 -4 25 -37 26 -28 0 -62 16 -128 57 -49 31 -95 57
-101 57 -6 0 -2 15 10 35 40 68 1 88 -54 28 -31 -34 -35 -36 -52 -22 -27 23
-89 48 -133 55 -22 4 -40 11 -40 17 0 6 9 30 21 54 37 77 -14 96 -63 23 -13
-19 -33 -37 -43 -39 -11 -2 -22 -7 -25 -11 -3 -4 -27 -4 -55 1 -27 5 -70 11
-95 14 -28 4 -57 15 -74 30 -41 36 -94 34 -130 -4 -20 -21 -41 -30 -79 -35
-155 -21 -337 -87 -337 -123 0 -11 5 -24 12 -31 9 -9 7 -13 -5 -18 -9 -3 -24
1 -32 10 -23 22 -28 21 -88 -20 -113 -79 -147 -106 -147 -117 0 -6 12 -21 28
-33 36 -29 22 -42 -16 -15 -41 29 -55 27 -85 -11 -208 -263 -227 -302 -294
-602 -8 -37 -14 -42 -86 -78 -81 -41 -94 -61 -52 -80 27 -12 71 3 88 29 18 29
23 7 23 -109 0 -150 12 -528 20 -620 4 -57 3 -68 -10 -68 -8 0 -21 -10 -27
-22 -10 -18 -8 -24 7 -35 22 -16 34 -17 34 -1 0 7 3 8 9 2 16 -17 52 -144 61
-217 22 -174 44 -289 57 -303 8 -8 23 -14 34 -14 10 0 19 -4 19 -10 0 -5 -6
-10 -14 -10 -35 0 -36 -39 -6 -218 11 -67 23 -129 26 -137 6 -15 -50 -74 -70
-75 -6 0 -25 -10 -43 -22 -32 -22 -45 -58 -21 -58 20 0 78 24 78 32 0 4 9 8
20 8 13 0 22 9 26 25 6 24 7 25 19 8 11 -17 52 -203 62 -285 l5 -37 -36 6
c-32 5 -36 3 -36 -15 0 -21 43 -62 64 -62 17 0 32 -30 50 -99 9 -35 25 -76 36
-91 11 -15 20 -31 20 -34 0 -3 -179 -6 -397 -6 -417 -1 -447 -4 -495 -47 -39
-35 -46 -66 -51 -213 -5 -146 2 -191 44 -264 8 -13 8 -21 0 -29 -6 -6 -11 -37
-11 -68 0 -51 3 -60 27 -79 24 -18 38 -21 120 -19 51 1 94 1 96 -2 6 -6 144
-846 162 -979 3 -25 10 -72 14 -105 5 -33 30 -204 55 -380 56 -393 63 -437 82
-550 18 -111 83 -592 84 -622 l0 -23 -640 0 -640 0 0 93 c0 100 13 229 35 347
21 112 53 326 60 400 26 264 82 582 206 1165 99 469 108 527 89 550 -7 8 -23
15 -36 15 -20 0 -24 5 -24 29 0 17 4 32 9 36 5 3 46 10 90 17 l81 11 22 43
c21 43 21 47 9 201 -7 87 -10 200 -7 252 5 83 3 97 -14 121 -16 23 -17 30 -7
39 15 12 16 39 3 60 -7 10 -120 12 -615 11 -333 -1 -611 -2 -617 -1 -8 1 -14
53 -18 154 -3 83 -8 170 -10 192 -3 22 -7 238 -10 480 -3 242 -9 457 -12 478
-4 27 -2 37 8 38 35 2 78 7 133 17 33 6 78 13 100 17 57 8 207 56 226 71 8 8
20 14 25 14 5 0 36 17 68 37 62 38 101 75 111 105 3 9 15 20 26 23 10 4 27 21
36 38 9 18 33 52 54 76 86 97 132 214 177 451 12 63 16 138 15 290 -1 113 -2
216 -3 230 -1 14 -1 47 0 73 1 27 -4 63 -10 81 -7 23 -7 41 0 60 7 20 6 34 -4
54 -8 15 -12 39 -9 54 3 15 -4 76 -15 135 -11 59 -23 143 -26 186 -3 43 -10
87 -16 97 -6 11 -13 39 -15 62 -7 54 -23 138 -40 203 -8 28 -19 73 -25 100
-15 62 -35 109 -54 124 -8 7 -12 19 -9 27 6 16 -86 122 -124 142 -44 24 -117
42 -193 47 -61 5 -82 2 -115 -13z m1675 -1632 c-24 -15 -37 -11 -16 5 11 8 22
12 25 9 3 -3 -1 -9 -9 -14z m205 -1850 c-3 -5 -10 -10 -16 -10 -5 0 -9 5 -9
10 0 6 7 10 16 10 8 0 12 -4 9 -10z m-4081 -932 c18 -30 29 -149 16 -182 -7
-18 -17 -26 -34 -26 -33 0 -42 20 -49 111 -4 59 -2 82 9 98 19 27 40 27 58 -1z
m150 -180 c8 -13 17 -55 21 -94 6 -59 4 -74 -10 -88 -15 -14 -47 -15 -64 0 -2
1 -6 42 -9 90 -4 77 -3 89 13 101 26 18 32 17 49 -9z m3729 -607 c36 -14 60
-106 117 -456 6 -38 16 -88 21 -110 6 -22 14 -77 19 -122 4 -45 13 -97 19
-115 6 -18 31 -136 56 -263 25 -126 59 -284 75 -350 17 -66 32 -147 34 -180 3
-33 15 -126 28 -206 19 -125 20 -149 9 -163 -37 -44 -79 10 -80 102 -1 24 -7
56 -15 70 -8 15 -29 104 -46 197 -17 94 -40 206 -50 250 -11 44 -35 181 -55
305 -20 124 -55 324 -79 445 -49 244 -72 367 -81 435 -3 25 -11 66 -16 93 -16
71 -6 87 44 68z m-3536 -43 c13 -16 28 -66 47 -158 15 -74 36 -181 48 -236 11
-56 18 -108 16 -115 -3 -8 4 -38 14 -66 10 -29 18 -72 18 -95 0 -24 7 -70 14
-103 8 -33 37 -172 65 -310 27 -137 59 -285 71 -329 12 -43 26 -115 30 -160 5
-44 18 -143 30 -219 21 -132 21 -139 4 -158 -36 -40 -59 -18 -75 67 -5 32 -21
109 -34 169 -13 61 -31 148 -40 195 -9 47 -25 126 -35 175 -11 50 -31 160 -45
245 -33 196 -32 193 -44 270 -6 36 -24 128 -40 205 -16 77 -44 221 -61 320
-17 99 -37 208 -44 242 -13 65 -8 83 24 83 9 0 26 -10 37 -22z m3843 -534 c0
-8 13 -54 28 -102 36 -108 52 -174 52 -210 0 -15 4 -32 9 -37 13 -16 31 -100
31 -150 0 -26 11 -90 24 -143 13 -53 34 -146 46 -207 12 -60 28 -137 35 -170
27 -123 47 -251 44 -280 -3 -24 -9 -30 -29 -30 -23 0 -26 6 -43 90 -9 50 -40
182 -67 295 -51 211 -143 663 -156 760 -4 30 -15 77 -25 103 -19 48 -15 80 14
99 15 9 37 -2 37 -18z m-3523 -129 c17 -55 36 -127 43 -160 6 -33 18 -82 26
-109 8 -26 14 -69 14 -95 0 -25 13 -102 29 -171 17 -69 39 -168 50 -220 19
-90 28 -134 66 -331 22 -111 18 -144 -15 -144 -29 0 -29 0 -65 180 -14 72 -37
171 -50 220 -27 97 -39 154 -86 395 -16 85 -38 196 -48 245 -11 50 -24 113
-29 140 -6 28 -16 70 -24 94 -12 41 -12 44 11 62 33 27 41 16 78 -106z m5503
-3196 c0 -11 -4 -17 -10 -14 -5 3 -10 15 -10 26 0 11 5 17 10 14 6 -3 10 -15
10 -26z m-2597 -187 c9 -8 17 -22 17 -31 0 -27 -122 -375 -175 -501 -83 -196
-151 -298 -178 -271 -17 17 -10 119 13 210 24 94 103 322 149 429 18 40 30 76
27 80 -2 4 6 28 18 52 30 59 82 72 129 32z m2052 -2 c17 -19 17 -24 -26 -152
-133 -407 -268 -686 -314 -648 -44 36 12 273 137 578 27 68 51 134 52 145 3
23 21 62 39 85 16 20 91 15 112 -8z m2088 6 c9 -7 17 -22 17 -33 0 -33 -124
-397 -170 -498 -90 -201 -136 -275 -169 -275 -26 0 -31 36 -15 128 15 89 51
213 94 327 17 44 35 91 39 105 5 14 18 45 31 70 12 24 24 58 25 76 4 34 31 94
49 106 18 12 80 8 99 -6z m-8068 -442 c-8 -16 -15 -23 -15 -16 0 13 22 53 27
48 2 -2 -3 -16 -12 -32z m4371 -156 c-1 -112 -12 -125 -15 -17 -1 40 9 139 13
139 1 0 2 -55 2 -122z m-2139 -50 c-2 -13 -4 -5 -4 17 -1 22 1 32 4 23 2 -10
2 -28 0 -40z m10 -50 c-3 -8 -6 -5 -6 6 -1 11 2 17 5 13 3 -3 4 -12 1 -19z
m10 -50 c-3 -7 -5 -2 -5 12 0 14 2 19 5 13 2 -7 2 -19 0 -25z m-2767 -121 c0
-30 6 -62 14 -73 13 -17 12 -21 -2 -37 -14 -16 -14 -20 5 -45 11 -15 28 -29
38 -31 15 -3 17 2 12 33 -5 32 -3 36 16 36 12 0 41 18 65 40 49 46 53 47 75
22 15 -17 12 -22 -49 -86 -84 -87 -144 -116 -237 -116 -77 0 -112 14 -151 60
-25 31 -29 40 -40 107 -7 41 33 94 65 86 15 -4 22 0 26 16 6 25 47 39 116 40
l47 1 0 -53z m740 -118 c17 -13 18 -17 5 -10 -33 17 -51 31 -40 31 6 0 21 -10
35 -21z m75 -39 c3 -5 -4 -6 -15 -3 -11 3 -22 9 -25 13 -3 5 4 6 15 3 11 -3
22 -9 25 -13z m112 -46 c-3 -3 -12 -4 -19 -1 -8 3 -5 6 6 6 11 1 17 -2 13 -5z"/>
<path d="M10274 2500 c-34 -13 -64 -59 -64 -96 0 -26 8 -41 36 -66 45 -41 58
-46 117 -47 92 -2 157 51 157 126 0 47 -29 63 -117 63 -52 0 -72 3 -70 12 3
15 -31 20 -59 8z"/>
<path d="M3577 2260 c-99 -38 -130 -74 -202 -238 -103 -235 -175 -511 -175
-675 0 -154 35 -220 124 -234 32 -5 36 -8 21 -14 -18 -7 -17 -8 6 -8 47 -2
125 28 167 64 23 20 46 34 51 31 12 -8 23 38 16 72 -3 15 2 7 11 -18 25 -68
50 -97 99 -116 43 -16 47 -16 91 1 59 22 152 109 209 195 110 165 253 478 241
526 -7 26 -31 37 -55 24 -10 -5 -53 -80 -95 -167 -126 -257 -217 -392 -288
-429 -27 -14 -31 -14 -49 2 -24 22 -24 52 0 134 41 141 106 292 257 593 46 93
84 181 84 196 0 41 -47 64 -142 69 -76 4 -78 4 -89 -22 -14 -30 -22 -32 -38
-12 -18 22 -99 46 -150 45 -25 0 -68 -9 -94 -19z m165 -187 c10 -9 18 -22 18
-29 0 -19 -101 -314 -154 -449 -53 -135 -127 -277 -164 -314 -24 -24 -25 -24
-38 -6 -8 10 -14 35 -14 56 0 79 89 369 175 570 39 89 40 93 24 84 -11 -7 25
69 43 93 15 18 88 15 110 -5z"/>
<path d="M5620 2075 c0 -21 5 -25 28 -25 15 0 39 8 52 17 l24 17 -24 7 c-14 4
-37 7 -52 8 -23 1 -28 -3 -28 -24z"/>
<path d="M5950 1960 c0 -5 7 -10 16 -10 8 0 12 5 9 10 -3 6 -10 10 -16 10 -5
0 -9 -4 -9 -10z"/>
</g>
</svg>
